<svg xmlns="http://www.w3.org/2000/svg" xml:space="preserve" viewBox="0 0 1000 1000">
  <g stroke="null">
    <path fill="#99958F" d="M468.777 14.672c.179.16.03.321-.117.482.718.364 1.407.81 2.16 1.08 17.108 6.122 34.24 12.18 51.333 18.343 26.652 9.61 53.26 19.346 79.923 28.923 29.925 10.749 59.907 21.341 89.837 32.076 21.605 7.75 43.152 15.66 64.751 23.427 28.234 10.154 56.5 20.22 84.74 30.359 17.661 6.34 35.3 12.743 52.823 19.52-5.222 4.975-10.38 9.482-15.404 14.132-17.322 16.032-34.596 32.117-51.892 48.178-13.531 12.564-27.07 25.121-40.601 37.686-17.296 16.06-34.589 32.124-51.88 48.19-13.886 12.903-27.765 25.814-41.652 38.716-17.203 15.982-34.41 31.959-51.617 47.936-13.621 12.648-27.27 25.268-40.862 37.948-15.74 14.684-31.413 29.438-47.153 44.123-4.558 4.252-9.333 8.274-13.845 12.573-3.954 3.768-7.679 7.777-11.743 11.566-11.96-4.315-23.69-8.494-35.402-12.724-25.982-9.387-51.948-18.82-77.935-28.195-22.185-8.003-44.392-15.947-66.587-23.923-21.856-7.855-43.7-15.742-65.566-23.57-20.492-7.338-41.02-14.574-61.503-21.935-19.553-7.027-39.065-14.167-58.601-21.242-13.904-5.036-27.802-10.09-41.732-15.051-7.36-2.622-14.785-5.063-22.18-7.586.578-.987.965-2.178 1.766-2.927 5.673-5.306 11.467-10.481 17.154-15.773 11.394-10.604 22.733-21.268 34.117-31.883 6.486-6.048 13.03-12.034 19.523-18.074 10.86-10.102 21.69-20.234 32.552-30.333 6.405-5.956 12.862-11.856 19.268-17.81 10.775-10.013 21.519-20.06 32.294-30.072 6.317-5.87 12.687-11.684 19.004-17.555 10.775-10.013 21.52-20.057 32.29-30.075 6.673-6.207 13.375-12.382 20.053-18.584 10.42-9.676 20.827-19.365 31.245-29.043 10.24-9.511 20.488-19.013 30.73-28.522 10.33-9.593 20.657-19.19 30.985-28.785 6.945-6.452 13.873-12.924 20.837-19.355 7.927-7.32 15.886-14.603 23.583-22.072 1.494-.169 3.236-.169 5.304-.169z"/>
    <path fill="#CCCCCA" d="M98.03 356.043c7.437 2.184 14.862 4.625 22.222 7.247 13.93 4.961 27.828 10.015 41.732 15.05 19.536 7.076 39.048 14.216 58.601 21.243 20.483 7.361 41.011 14.597 61.503 21.934 21.866 7.829 43.71 15.716 65.566 23.57 22.195 7.977 44.402 15.92 66.587 23.924 25.987 9.374 51.953 18.808 77.935 28.194 11.712 4.231 23.442 8.41 35.432 12.918.3.432.331.558.363.685-.025 9.672-.152 19.346-.051 29.018.156 15.007.47 30.013.71 45.02.25 15.62.487 31.238.737 46.857.24 14.885.494 29.769.732 44.653.252 15.742.487 31.484.738 47.225.238 14.884.494 29.769.732 44.653.252 15.741.487 31.483.738 47.225.238 14.884.494 29.768.732 44.653.252 15.741.487 31.483.738 47.224.239 15.007.555 30.013.711 45.02.114 10.955.022 21.912.022 32.972-8.122-2.814-16.72-5.723-25.269-8.772-12.378-4.416-24.721-8.928-37.076-13.409-23.928-8.678-47.827-17.434-71.785-26.026-26.409-9.47-52.881-18.763-79.305-28.19a11740.31 11740.31 0 0 1-55.136-19.848c-26.713-9.681-53.387-19.471-80.117-29.106-26.173-9.433-52.403-18.706-78.56-28.183-.908-.328-1.835-2.068-1.856-3.167-.355-18.678-.554-37.36-.819-56.04-.223-15.741-.462-31.483-.738-47.224-.207-11.824-.533-23.645-.715-35.47-.289-18.679-.484-37.36-.753-56.04-.216-15.007-.488-30.014-.728-45.02-.25-15.62-.487-31.239-.737-46.858-.24-15.007-.492-30.013-.732-45.02-.25-15.62-.49-31.238-.737-46.857-.242-15.252-.496-30.504-.733-45.756a14425.6 14425.6 0 0 1-.684-48.299z"/>
    <path fill="#7C8C99" d="M528.248 510.788c-.309-.107-.34-.233-.402-.552 3.796-4.095 7.521-8.104 11.475-11.872 4.512-4.3 9.287-8.321 13.845-12.574 15.74-14.684 31.413-29.438 47.153-44.122 13.592-12.68 27.24-25.3 40.862-37.948 17.207-15.977 34.414-31.955 51.617-47.936 13.887-12.902 27.766-25.813 41.653-38.716 17.29-16.066 34.583-32.13 51.879-48.19 13.531-12.565 27.07-25.122 40.601-37.687 17.296-16.06 34.57-32.145 51.892-48.177 5.024-4.65 10.182-9.157 15.473-13.867.212-.017.243.104.246.225.27 12.933.621 25.865.788 38.8.308 23.954.476 47.91.764 71.865.185 15.383.478 30.766.724 46.15l.735 45.782c.246 15.383.489 30.766.735 46.15l.734 45.782.735 45.782.736 46.15c.244 15.261.475 30.522.738 45.783.224 12.934.488 25.868.728 38.802.024 1.302.003 2.605.003 4.423-7.076-2.486-13.614-4.747-20.127-7.08a86063.102 86063.102 0 0 1-88.27-31.656c-18.484-6.643-36.948-13.344-55.427-20.004-27.152-9.786-54.298-19.592-81.468-29.329-29.988-10.748-60.008-21.406-89.999-32.147-12.736-4.561-25.431-9.234-38.423-13.837z"/>
  </g>
</svg>
